<?xml version="1.0" encoding="utf-8"?>
<!-- Generator: Adobe Illustrator 16.0.0, SVG Export Plug-In . SVG Version: 6.00 Build 0)  -->
<!DOCTYPE svg PUBLIC "-//W3C//DTD SVG 1.1//EN" "http://www.w3.org/Graphics/SVG/1.1/DTD/svg11.dtd">
<svg version="1.1" id="Layer_1" xmlns="http://www.w3.org/2000/svg" xmlns:xlink="http://www.w3.org/1999/xlink" x="0px" y="0px"
	 width="50px" height="50px" viewBox="0 0 50 50" enable-background="new 0 0 50 50" xml:space="preserve">
<path d="M48.636,46.294c-0.025-0.303-0.149-0.609-0.413-0.888c-0.741-0.783-1.479-2.2-1.52-3.198
	c-0.009-0.221-0.06-0.412-0.136-0.582c-0.017-0.221-0.087-0.452-0.24-0.687c-1.052-1.608-2.212-3.139-3.165-4.811
	c-1.147-2.014-1.877-4.263-2.883-6.348c-0.222-0.459-0.565-0.688-0.935-0.748c-2.611-3.512-3.419-8.236-5.777-11.941
	c-2.701-4.245-4.586-8.974-6.254-13.699c-0.369-1.045-1.489-1.224-2.247-0.839c-0.347,0.076-0.676,0.277-0.92,0.652
	c-2.698,4.134-5.919,7.904-8.263,12.266c-0.046,0.086-0.078,0.171-0.106,0.256c-0.021,0.029-0.044,0.053-0.064,0.084
	C12.545,21,11.08,26.85,8.21,32.217c-2.486,4.649-3.391,9.523-3.52,14.761c-0.035,1.413,1.551,1.787,2.431,1.138
	c2.451-0.184,4.742,0.321,7.179,0.434c3.25,0.149,6.431-0.517,9.659-0.724c6.291-0.402,12.741-0.018,19.071,0.044
	c0.153,0.13,0.346,0.234,0.58,0.3c1.221,0.344,2.466,0.314,3.721,0.309C48.602,48.472,49.032,47.18,48.636,46.294z M25.695,44.786
	c-3.298-0.016-6.532,0.635-9.819,0.769c-2.808,0.113-5.324-0.557-8.078-0.478c0.414-5.179,1.976-9.427,4.505-14.155
	c2.366-4.425,3.369-9.288,6-13.596c0.063-0.104,0.112-0.207,0.148-0.308c0.007-0.012,0.016-0.021,0.022-0.033
	c1.956-3.641,4.521-6.872,6.886-10.245c1.562,4.102,3.368,8.062,5.616,11.865c2.42,4.093,3.49,9.069,6.437,12.823
	c0.164,0.209,0.346,0.344,0.534,0.426c0.79,1.705,1.481,3.453,2.298,5.147c0.936,1.943,2.304,3.639,3.48,5.435
	c0.064,0.814,0.294,1.649,0.643,2.444C38.144,44.879,31.92,44.816,25.695,44.786z"/>
<path fill="#FF0000" d="M45.411,43.532c-1.094-1.128-1.979-2.343-2.784-3.689c-0.9-1.504-2.062-2.956-2.707-4.592
	c-0.082-0.207-0.195-0.376-0.327-0.517c-0.28-2.653-1.609-4.505-3.184-6.644c-0.85-1.154-1.277-2.453-1.868-3.74
	c-0.803-1.748-1.909-3.215-2.628-5.029c-0.012-0.029-0.028-0.052-0.041-0.08c-0.214-1.741-0.901-3.237-1.558-4.849
	c-0.686-1.683-2.006-3.086-2.575-4.782c-0.085-0.253-0.216-0.451-0.374-0.606c-0.004-0.425-0.063-0.84-0.222-1.268
	c-0.187-0.502-0.563-0.89-1.034-1.036c-0.652-0.445-1.614-0.453-2.134,0.423c-1.006,1.697-2.462,3.208-3.219,5.039
	c-0.105,0.254-0.2,0.525-0.294,0.799c-0.493-0.057-1.002,0.135-1.342,0.72c-0.828,1.426-1.974,2.714-2.275,4.353
	c-0.275,0.314-0.528,0.624-0.706,0.929c-1,1.719-0.628,3.848-1.533,5.622c-0.06,0.117-0.1,0.232-0.129,0.346
	c-0.152,0.22-0.247,0.497-0.246,0.837c0.001,0.329-0.033,0.66-0.088,0.991c-0.067-0.01-0.134-0.021-0.201-0.021
	c-0.881,0-1.416,0.688-1.5,1.5c-0.113,1.091-0.903,2.141-1.414,3.076c-0.362,0.664-0.184,1.296,0.219,1.723
	c-0.37,0.633-0.718,1.249-0.999,1.838c-1.224,2.567-2.368,4.828-2.542,7.651c-0.182,0.248-0.293,0.549-0.291,0.874
	c0.002,0.271,0.011,0.542,0.007,0.813c-0.004,0.047-0.006,0.083-0.008,0.108c-0.036,0.099-0.126,0.344-0.05,0.195
	c-0.373,0.728-0.195,1.622,0.539,2.052c0.676,0.396,1.679,0.189,2.052-0.538c0.091-0.178,0.163-0.355,0.222-0.533
	c7.019,0.02,14.036,0.235,21.055,0.254c0.03,0,0.056-0.007,0.084-0.008c0.154,0.054,0.321,0.092,0.513,0.093
	c3.978,0.029,7.946,0.39,11.925,0.256c0.082-0.003,0.156-0.018,0.231-0.031C45.233,46.369,46.54,44.696,45.411,43.532z"/>
<path fill="#1A1A1A" d="M26.036,32.014c-0.738-2.234-0.6-5.499-0.713-7.864c-0.172-3.584,0.226-7.229,0.255-10.818
	c0.016-1.935-2.984-1.934-3,0c-0.029,3.607-0.227,7.21-0.255,10.818c-0.021,2.589,0.009,6.205,0.82,8.661
	C23.747,34.639,26.644,33.855,26.036,32.014z"/>
<path fill="#1A1A1A" d="M28.279,38.826c-1.165-1.175-3.337-1.262-4.125,0.376c-0.523,1.087-0.529,2.544-0.074,3.659
	c0.279,0.687,0.864,1.177,1.611,1.088c1.051,0.482,2.289,0.144,3.007-0.977C29.498,41.725,29.314,39.872,28.279,38.826z"/>
</svg>
