<?xml version="1.0" encoding="utf-8"?>
<!-- Generator: Adobe Illustrator 16.0.0, SVG Export Plug-In . SVG Version: 6.00 Build 0)  -->
<!DOCTYPE svg PUBLIC "-//W3C//DTD SVG 1.1//EN" "http://www.w3.org/Graphics/SVG/1.1/DTD/svg11.dtd">
<svg version="1.1" id="Layer_1" xmlns="http://www.w3.org/2000/svg" xmlns:xlink="http://www.w3.org/1999/xlink" x="0px" y="0px"
	 width="50px" height="50px" viewBox="0 0 50 50" enable-background="new 0 0 50 50" xml:space="preserve">
<path d="M47.586,46.325c-0.518-1.952-1.408-3.542-2.479-5.256c-1.778-2.845-2.329-6.224-3.732-9.24
	c-1.311-2.818-3.175-5.153-4.851-7.749c-1.135-1.758-1.217-3.499-2.677-4.965c-0.429-2.53-1.319-4.917-2.361-7.254
	c-1.04-2.333-3.281-4.044-3.746-6.592c-0.115-0.634-0.517-0.961-0.983-1.053c-0.781-0.606-2.087-0.521-2.335,0.712
	c-0.848,4.216-3.585,7.872-4.988,11.947c-1.124,3.266-2.302,5.662-4.507,8.345c-1.114,1.354-1.302,3.214-2.364,4.647
	c-0.072,0.098-0.129,0.194-0.173,0.291c-0.117,0.2-0.194,0.438-0.202,0.722c-0.081,2.9-1.639,5.205-2.984,7.674
	c-1.076,1.975-1.75,4.167-2.207,6.364c-0.35,0.273-0.531,0.705-0.547,1.145c-1.01,0.974,0.371,2.977,1.947,2.296
	c1.978-0.854,5.239-0.162,7.354-0.04c2.942,0.169,5.435,0.497,8.365-0.043c3.68-0.679,6.62-1.182,10.393-0.433
	c3.06,0.608,5.862,1.075,8.992,0.721c0.063-0.007,0.12-0.025,0.18-0.038c0.237,0.059,0.486,0.063,0.729-0.016
	c0.214-0.069,0.428-0.134,0.644-0.193c0.308-0.083,0.431-0.088,0.577-0.093c0.106-0.003,0.211-0.019,0.312-0.041
	C46.869,48.252,47.897,47.502,47.586,46.325z M43.826,45.559c-0.102-0.009-0.211-0.008-0.327,0.005
	c-3.985,0.451-7.705-0.604-11.611-1.224c-2.872-0.456-5.798,0.414-8.571,1.042c-4.268,0.968-8.926-0.77-13.241-0.384
	c1.333-4.704,4.72-8.723,5.074-13.614c0-0.001,0.001-0.002,0.002-0.003c1.438-1.94,1.98-4.299,3.718-6.072
	c1.24-1.265,1.811-3.035,2.443-4.643c1.072-2.73,1.801-5.476,3.191-8.089c0.62-1.165,1.204-2.268,1.697-3.406
	c0.638,0.949,1.385,1.842,2.033,2.875c1.451,2.31,2.309,5.316,2.744,7.99c0.042,0.258,0.134,0.462,0.257,0.625
	c0.075,0.13,0.168,0.258,0.3,0.377c1.136,1.029,1.677,3.184,2.397,4.557c1.134,2.162,2.867,4.008,4.097,6.127
	c1.512,2.608,2.004,5.704,3.237,8.433c0.841,1.861,2.029,3.49,2.839,5.333C44.014,45.513,43.919,45.53,43.826,45.559z"/>
<path fill="#FFFF00" d="M44.187,43.583c0.024-0.364-0.111-0.745-0.479-1.072c-1.176-1.049-0.476-3.447-1.299-4.892
	c-0.952-1.671-3.163-1.049-3.117-3.417c0.005-0.255-0.045-0.474-0.132-0.662c-0.016-0.222-0.087-0.455-0.243-0.691
	c-0.939-1.421-1.604-2.953-2.726-4.255c-0.577-0.67-1.184-1.158-1.65-1.931c-0.405-0.671-0.736-1.39-1.116-2.076
	c-0.005-0.193-0.043-0.393-0.13-0.597c-1.111-2.611-0.67-5.768-2.044-8.262c-0.441-0.802-0.973-1.477-1.56-2.175
	c-0.665-0.791-1.064-1.775-1.505-2.735c-0.026-0.404-0.198-0.81-0.494-1.102c-0.082-0.254-0.252-0.464-0.465-0.622
	c-0.023-0.031-0.042-0.065-0.065-0.096c-1.11-1.461-3.556-0.136-2.697,1.339c-1.613,1.472-2.415,4.159-2.49,6.287
	c-0.077,0.085-0.15,0.182-0.214,0.296c-1.125,2-2.423,3.923-3.284,6.057c-0.803,1.989-0.189,3.902-2.31,5.16
	c-0.448,0.266-0.66,0.648-0.707,1.047c0,0.001-0.001,0.002-0.002,0.003c-1.657,2.382-2.673,4.859-3.016,7.741
	c-0.185,1.557-0.354,5.039-1.982,5.774c-0.563,0.255-0.788,0.692-0.778,1.144c-0.192,1.104,0.965,2.371,2.207,1.617
	c1.109-0.673,2.87,0.295,4.04,0.492c1.899,0.319,3.852-0.208,5.765-0.117c0.236,0.012,0.443-0.025,0.622-0.096
	c0.12,0,0.243-0.012,0.374-0.043c6.814-1.615,13.592,0.536,20.47,0.479C44.644,46.167,44.984,44.397,44.187,43.583z"/>
<path fill="#1A1A1A" d="M24.112,15.718v15.502c0,1.935,3,1.935,3,0V15.718C27.111,13.784,24.112,13.784,24.112,15.718z"/>
<path fill="#1A1A1A" d="M25.526,38.664c-1.935,0-1.935,3,0,3S27.461,38.664,25.526,38.664z"/>
</svg>
