<?xml version="1.0" encoding="utf-8"?>
<!-- Generator: Adobe Illustrator 16.0.0, SVG Export Plug-In . SVG Version: 6.00 Build 0)  -->
<!DOCTYPE svg PUBLIC "-//W3C//DTD SVG 1.1//EN" "http://www.w3.org/Graphics/SVG/1.1/DTD/svg11.dtd">
<svg version="1.1" id="Layer_1" xmlns="http://www.w3.org/2000/svg" xmlns:xlink="http://www.w3.org/1999/xlink" x="0px" y="0px"
	 width="50px" height="50px" viewBox="0 0 50 50" enable-background="new 0 0 50 50" xml:space="preserve">
<ellipse fill="#FF0000" stroke="#FF0000" stroke-miterlimit="10" cx="25.058" cy="25.065" rx="24.404" ry="24.554"/>
<path fill="#F2F2F2" d="M40.594,38.018c-2.226-1.318-3.59-3.127-5.622-4.601c-3.077-2.232-5.279-5.353-8.348-7.496
	c-0.531-0.371-1.033-0.779-1.525-1.2c0.993-1.234,2.003-2.458,3.05-3.665c3.368-3.882,7.734-6.08,9.215-11.329
	c0.526-1.866-2.368-2.657-2.893-0.798c-1.525,5.407-7.863,9.204-11.29,13.535c-0.072,0.091-0.141,0.182-0.213,0.273
	c-1.632-1.619-3.207-3.288-5.06-4.544c-3.341-2.266-6.359-4.469-9.125-7.455c-1.317-1.422-3.433,0.704-2.121,2.121
	c2.209,2.386,4.587,4.71,7.355,6.44c2.653,1.659,4.635,3.981,6.931,6.031c-3.172,4.106-6.173,8.2-9.154,12.543
	c-1.098,1.6,1.503,3.098,2.591,1.514c2.862-4.168,5.729-8.259,8.792-12.229c5.552,4.272,9.809,9.843,15.902,13.449
	C40.749,41.596,42.257,39.002,40.594,38.018z"/>
</svg>
